<?xml version="1.0" standalone="no"?>
<!DOCTYPE svg PUBLIC "-//W3C//DTD SVG 20010904//EN"
 "http://www.w3.org/TR/2001/REC-SVG-20010904/DTD/svg10.dtd">
<svg version="1.0" xmlns="http://www.w3.org/2000/svg"
 width="25" viewBox="0 0 3264.000000 3264.000000"
 preserveAspectRatio="xMidYMid meet">

<g transform="translate(0.000000,3264.000000) scale(0.100000,-0.100000)"
fill="#2563eb" stroke="none">
<path d="M1205 31600 c-121 -6 -134 -8 -190 -38 -102 -54 -116 -72 -138 -182
-13 -63 -29 -528 -30 -880 0 -14 1 -6399 3 -14190 2 -7791 0 -14171 -4 -14178
-13 -21 -18 -521 -6 -608 17 -122 63 -186 154 -213 17 -6 51 -18 76 -28 43
-17 575 -18 14540 -20 7972 -2 14685 -3 14916 -3 232 -1 475 2 540 6 107 6
126 10 190 40 93 44 147 96 164 160 15 55 29 581 18 674 -5 42 -16 27597 -11
28465 0 99 1 253 2 342 2 279 -38 454 -130 556 -58 66 -98 83 -224 97 -99 11
-29640 11 -29870 0z m22807 -3722 c82 -35 80 -24 91 -498 6 -228 11 -473 11
-545 0 -134 1 -1543 1 -1995 0 -217 -3 -265 -19 -325 -35 -131 -55 -174 -89
-192 -46 -24 -177 -71 -287 -103 -52 -15 -113 -35 -135 -44 -22 -8 -67 -22
-100 -30 -118 -28 -191 -54 -272 -95 -44 -22 -87 -41 -95 -41 -7 0 -33 -12
-58 -26 -72 -41 -153 -70 -332 -119 -144 -39 -243 -77 -361 -140 -27 -14 -215
-61 -333 -84 -120 -22 -148 -12 -182 66 -30 72 -34 146 -35 758 -1 442 1 577
12 642 12 66 12 106 3 210 -18 208 -29 246 -93 323 -43 52 -65 68 -142 104
l-92 43 -205 12 c-150 9 -1268 12 -4240 11 -4371 0 -6231 -6 -6380 -20 -148
-15 -255 -56 -318 -124 -104 -113 -102 -92 -102 -1091 -1 -690 2 -857 14 -937
8 -54 19 -105 25 -115 5 -10 38 -45 73 -77 34 -33 95 -90 133 -127 69 -66 110
-87 195 -103 100 -19 308 -89 373 -125 74 -42 220 -93 393 -137 136 -34 153
-41 195 -79 61 -54 158 -90 291 -109 106 -16 148 -31 213 -81 37 -27 173 -67
310 -90 135 -23 247 -62 395 -136 96 -47 156 -70 260 -96 159 -39 180 -47 241
-85 65 -40 159 -76 237 -92 123 -25 277 -68 293 -82 8 -8 19 -14 24 -14 5 0
25 -11 45 -25 33 -23 288 -115 320 -115 8 0 71 -25 140 -56 209 -93 232 -101
376 -139 102 -27 171 -52 259 -96 103 -51 408 -159 449 -159 6 0 32 -13 57
-29 52 -32 165 -71 294 -101 159 -37 300 -81 315 -98 37 -43 180 -106 310
-137 41 -9 122 -41 180 -70 130 -64 165 -75 408 -120 159 -29 206 -42 265 -72
40 -19 84 -46 99 -59 29 -23 62 -35 238 -80 100 -25 211 -72 225 -94 13 -21
73 -43 214 -80 228 -59 295 -82 451 -152 150 -69 197 -85 315 -112 39 -9 90
-27 115 -40 153 -82 189 -96 313 -121 130 -26 219 -55 248 -81 8 -8 19 -14 22
-14 4 0 25 -13 47 -29 23 -16 75 -38 122 -51 161 -42 268 -80 368 -130 30 -15
80 -35 110 -44 30 -9 78 -25 105 -35 28 -11 104 -31 170 -46 168 -38 178 -42
253 -92 114 -76 137 -84 332 -117 19 -4 64 -22 100 -41 143 -77 188 -95 265
-110 158 -30 368 -94 499 -154 72 -32 169 -69 216 -81 139 -36 241 -71 305
-106 66 -36 97 -46 295 -99 161 -43 242 -73 324 -123 64 -39 150 -69 351 -122
66 -18 131 -40 145 -50 40 -28 123 -63 265 -109 72 -24 146 -55 165 -69 19
-14 36 -26 38 -27 1 -1 12 -44 23 -96 22 -93 22 -105 27 -1754 7 -2588 2
-3201 -29 -3260 -21 -39 -128 -116 -206 -147 -43 -17 -87 -37 -98 -44 -30 -19
-209 -83 -295 -104 -109 -27 -152 -44 -228 -89 -70 -42 -116 -57 -292 -96 -97
-22 -152 -39 -285 -92 -27 -11 -95 -35 -150 -53 -55 -18 -120 -43 -145 -55
-25 -12 -63 -28 -85 -35 -22 -7 -58 -20 -80 -30 -22 -10 -69 -30 -105 -45 -36
-15 -78 -33 -95 -40 -39 -18 -155 -55 -171 -55 -7 0 -68 -16 -136 -35 -81 -24
-135 -45 -158 -64 -40 -31 -49 -35 -260 -101 -85 -27 -191 -67 -235 -90 -44
-23 -114 -51 -155 -61 -98 -25 -365 -116 -410 -139 -58 -30 -201 -87 -265
-106 -110 -31 -269 -95 -326 -129 -31 -19 -78 -39 -105 -45 -94 -21 -410 -124
-489 -160 -35 -16 -99 -38 -142 -49 -99 -26 -260 -83 -339 -121 -34 -16 -149
-55 -255 -85 -193 -56 -418 -131 -599 -200 -52 -20 -141 -51 -197 -70 -56 -19
-129 -53 -164 -75 -64 -41 -142 -69 -284 -100 -142 -32 -199 -51 -264 -87 -61
-34 -83 -42 -231 -82 -36 -10 -121 -45 -190 -78 -110 -54 -401 -157 -500 -178
-47 -10 -182 -55 -195 -65 -35 -28 -185 -92 -256 -110 -127 -32 -201 -63 -283
-117 -27 -18 -58 -35 -70 -38 -167 -37 -298 -71 -329 -87 -21 -10 -84 -30
-139 -44 -55 -14 -126 -38 -157 -53 -31 -16 -83 -39 -116 -51 -33 -13 -64 -27
-70 -31 -5 -4 -39 -15 -74 -24 -70 -18 -114 -38 -201 -91 -69 -42 -119 -58
-290 -89 -168 -32 -317 -78 -428 -134 -21 -10 -59 -24 -87 -30 -80 -20 -419
-156 -450 -182 -16 -12 -160 -56 -359 -109 -44 -12 -107 -36 -140 -55 -34 -18
-128 -54 -211 -80 -82 -26 -168 -55 -190 -65 -22 -10 -65 -29 -95 -43 -30 -13
-102 -39 -160 -57 -58 -18 -139 -45 -180 -60 -41 -15 -129 -44 -194 -65 -66
-21 -145 -51 -175 -68 -31 -16 -78 -37 -106 -47 -157 -54 -305 -114 -336 -136
-47 -32 -214 -89 -339 -116 -62 -13 -160 -23 -285 -28 -263 -12 -1731 -12
-1944 0 l-174 9 -53 36 c-78 54 -84 66 -84 192 -1 421 10 2832 13 2973 4 133
9 184 21 210 37 80 92 173 106 181 20 10 206 66 250 74 79 16 458 158 531 200
15 8 60 22 100 30 46 10 120 38 194 74 112 56 181 77 346 111 70 14 184 55
219 78 77 52 168 79 309 92 165 15 192 -5 212 -155 9 -71 9 -143 -1 -335 -15
-289 -8 -1081 9 -1174 13 -65 54 -133 101 -166 25 -18 50 -23 128 -27 56 -3
122 0 157 6 33 7 95 18 138 26 76 14 321 88 341 104 6 4 38 18 71 31 33 13 65
26 70 30 6 4 82 30 170 59 103 32 183 64 223 90 68 42 127 62 237 81 115 20
245 51 273 66 15 8 31 14 35 14 5 0 41 15 80 34 40 19 153 60 252 92 135 44
197 70 250 104 71 46 196 90 355 126 139 31 178 45 232 84 70 50 108 64 243
90 151 30 225 60 355 145 19 13 60 28 90 35 30 6 89 22 130 35 41 13 116 35
165 50 50 15 131 47 180 71 50 24 168 69 264 99 143 45 183 62 229 96 60 45
169 82 332 113 91 17 230 66 338 119 37 19 112 46 167 61 211 59 237 68 295
102 86 50 118 62 275 105 245 66 283 78 388 125 56 24 136 54 177 64 244 63
270 73 355 135 49 36 156 73 256 90 116 20 258 67 320 105 26 16 94 43 151 60
142 43 354 126 408 160 52 33 233 91 372 120 54 11 110 25 125 31 30 11 95 52
128 80 23 20 86 40 205 65 92 19 123 31 185 69 95 59 164 88 302 125 172 46
336 100 408 133 64 30 118 50 230 82 185 53 222 67 293 111 48 28 95 48 135
55 157 30 267 62 365 107 59 27 141 59 182 72 83 24 218 107 285 175 41 41 74
114 96 210 7 35 9 149 4 380 -3 182 -8 557 -10 835 -4 559 -10 641 -48 698
-40 61 -140 156 -222 210 -69 46 -190 95 -290 117 -16 3 -80 31 -141 60 -99
48 -254 96 -384 120 -84 16 -197 58 -249 94 -31 21 -76 46 -101 54 -71 25
-321 97 -335 97 -7 0 -23 9 -37 20 -34 26 -436 158 -580 190 -26 5 -70 24 -96
40 -27 17 -54 30 -61 30 -6 0 -38 13 -70 30 -33 16 -133 48 -223 70 -105 26
-176 49 -198 65 -48 33 -142 70 -215 85 -151 29 -322 88 -454 155 -38 19 -71
35 -75 35 -4 0 -26 8 -49 18 -73 32 -149 61 -237 88 -47 14 -127 46 -179 71
-143 68 -177 79 -296 99 -96 16 -118 23 -169 57 -48 33 -270 117 -307 117 -4
0 -72 29 -151 64 -130 58 -342 131 -583 201 -49 14 -110 37 -135 50 -158 85
-250 124 -335 140 -49 9 -104 25 -121 36 -54 33 -159 67 -254 84 -103 18 -357
99 -413 133 -20 11 -58 28 -84 36 -27 8 -99 36 -162 61 -62 25 -143 53 -179
61 -59 14 -129 40 -217 80 -59 27 -202 72 -280 89 -114 25 -157 40 -270 96
-55 28 -136 61 -180 74 -125 37 -213 69 -306 113 -106 50 -231 94 -373 133
-60 16 -160 54 -222 84 -63 30 -177 73 -256 96 -79 23 -188 63 -243 89 -111
52 -186 78 -333 115 -137 35 -204 59 -281 102 -117 65 -204 100 -375 148 -32
9 -82 29 -110 45 -92 51 -327 117 -576 161 -115 20 -131 26 -211 74 -91 56
-187 93 -309 119 -53 12 -99 31 -156 65 -89 53 -110 61 -229 86 -130 27 -293
82 -400 135 -147 72 -401 170 -441 170 -7 0 -42 13 -79 30 -36 16 -143 54
-236 84 -165 54 -229 81 -229 99 0 5 -16 42 -35 82 -20 41 -40 100 -45 132 -6
35 -10 933 -10 2286 0 1613 -3 2241 -11 2273 -8 29 -9 86 -5 162 4 64 10 306
14 537 8 465 6 446 76 487 34 19 60 24 151 28 61 3 3631 4 7934 2 l7824 -3 49
-21z m-7722 -22622 c7028 -2 8855 -5 8892 -15 112 -30 163 -98 175 -236 13
-143 8 -1053 -6 -1101 -8 -29 -32 -63 -79 -111 -60 -64 -72 -71 -117 -78 -66
-10 -17755 -17 -18046 -7 l-226 7 -79 59 c-44 33 -89 71 -101 85 l-23 26 0
571 c0 347 4 592 10 625 13 66 46 102 145 154 l70 36 270 -6 c149 -4 4250 -8
9115 -9z"/>
</g>
</svg>
