<?xml version="1.0" standalone="no"?>
<!DOCTYPE svg PUBLIC "-//W3C//DTD SVG 20010904//EN"
 "http://www.w3.org/TR/2001/REC-SVG-20010904/DTD/svg10.dtd">
<svg version="1.0" xmlns="http://www.w3.org/2000/svg"
 width="200" viewBox="0 0 3264.000000 788.000000"
 preserveAspectRatio="xMidYMid meet">

<g transform="translate(0.000000,788.000000) scale(0.100000,-0.100000)"
fill="#2563eb" stroke="none">
<path d="M500 7490 c-20 -20 -20 -33 -21 -3487 0 -1908 -3 -3529 -5 -3604 -4
-124 -2 -139 15 -160 l19 -24 3645 -3 c3462 -2 3646 -1 3666 15 l22 18 0 3604
c0 3538 0 3605 -19 3630 l-19 26 -3642 3 c-3630 2 -3641 2 -3661 -18z m5528
-929 c11 -7 14 -83 15 -384 2 -337 0 -378 -14 -393 -9 -9 -66 -33 -125 -54
-60 -21 -147 -52 -194 -70 -113 -42 -143 -51 -149 -44 -3 3 -7 106 -9 229 -3
219 -3 223 -27 245 -12 12 -40 26 -62 30 -50 12 -2584 12 -2643 1 -28 -6 -53
-19 -67 -36 -23 -26 -23 -30 -23 -286 l0 -260 38 -40 c26 -27 52 -44 87 -54
57 -16 175 -59 220 -80 38 -17 113 -42 187 -60 31 -8 76 -23 100 -34 46 -20
126 -50 198 -74 25 -8 77 -27 115 -41 39 -15 99 -38 135 -51 36 -12 97 -35
135 -50 39 -14 97 -34 130 -44 33 -10 69 -23 80 -29 35 -20 148 -60 190 -68
40 -7 173 -55 209 -75 11 -6 47 -19 80 -29 34 -10 97 -32 141 -50 44 -17 100
-37 125 -44 25 -8 61 -20 80 -29 63 -28 164 -64 200 -72 19 -4 49 -15 65 -25
17 -10 46 -21 65 -25 19 -4 44 -13 55 -20 11 -7 45 -18 75 -25 30 -7 69 -20
85 -28 17 -8 50 -21 75 -28 79 -23 192 -63 204 -73 6 -5 31 -14 56 -21 25 -6
59 -17 75 -25 17 -7 42 -16 57 -20 15 -4 32 -13 39 -21 8 -10 12 -168 13 -589
1 -498 -1 -576 -14 -589 -17 -17 -171 -78 -265 -105 -33 -10 -101 -34 -152
-54 -50 -20 -106 -40 -125 -46 -18 -5 -69 -24 -113 -41 -44 -17 -95 -36 -113
-41 -18 -6 -88 -32 -155 -58 -67 -27 -225 -83 -352 -125 -126 -43 -248 -86
-270 -96 -22 -10 -80 -31 -130 -48 -49 -17 -139 -49 -200 -72 -60 -23 -126
-46 -145 -52 -19 -5 -39 -14 -45 -18 -5 -4 -66 -26 -135 -50 -69 -23 -134 -48
-146 -55 -12 -7 -39 -17 -60 -21 -21 -3 -97 -28 -169 -54 -71 -27 -195 -71
-275 -100 -80 -28 -185 -68 -235 -87 -164 -65 -146 -63 -422 -63 -209 -1 -259
2 -271 13 -20 21 -20 738 0 769 8 12 48 32 93 48 44 15 105 38 135 50 30 12
82 30 115 39 33 10 70 23 82 29 53 29 53 28 53 -186 0 -241 0 -242 93 -242 34
0 80 5 102 11 46 12 162 55 187 69 10 5 39 15 65 20 47 11 149 47 208 74 32
15 131 49 207 71 25 7 57 19 70 26 23 13 150 59 218 80 19 6 42 17 50 24 8 7
31 16 50 20 34 6 132 40 220 75 25 10 97 35 160 55 63 20 120 41 127 47 7 5
36 16 65 23 29 7 89 27 133 45 71 28 133 51 245 90 19 7 49 19 65 27 17 9 50
21 75 29 78 22 222 74 234 83 6 5 29 12 51 16 61 10 168 66 183 95 9 19 12 91
10 284 l-3 258 -39 34 c-22 19 -46 34 -55 34 -9 0 -29 7 -45 15 -16 8 -56 22
-89 31 -34 9 -73 21 -87 29 -14 7 -79 31 -145 53 -199 68 -425 148 -510 182
-44 17 -93 35 -110 40 -16 5 -83 29 -147 54 -65 25 -123 46 -130 46 -7 0 -29
8 -48 19 -19 10 -69 28 -110 41 -41 12 -98 31 -125 41 -28 11 -127 46 -220 78
-94 33 -213 76 -265 96 -121 46 -187 70 -275 100 -38 13 -104 37 -144 54 -41
18 -104 39 -140 47 -37 9 -85 25 -108 35 -24 10 -48 19 -53 19 -6 0 -27 8 -48
19 -20 10 -52 21 -69 24 -18 4 -54 16 -80 28 -27 12 -91 37 -143 54 -74 25
-98 38 -107 57 -9 18 -13 189 -14 682 -2 557 0 659 12 667 18 11 3759 12 3777
0z m299 -5409 c14 -16 24 -102 19 -175 -4 -74 -9 -95 -26 -111 l-21 -21 -2042
-3 c-1123 -2 -2098 0 -2166 4 -113 6 -126 8 -148 30 -21 22 -23 30 -19 96 2
40 5 94 5 120 1 40 5 49 25 60 20 11 442 12 2198 8 1195 -3 2174 -6 2175 -8z"/>
<path d="M10867 5070 c-27 -5 -54 -13 -60 -18 -7 -6 -32 -15 -57 -22 -25 -7
-52 -18 -60 -25 -8 -7 -28 -17 -45 -20 -38 -9 -158 -100 -216 -163 -120 -132
-189 -269 -215 -429 -39 -243 16 -496 139 -643 15 -17 27 -35 27 -39 0 -14
138 -144 186 -175 86 -56 141 -85 186 -96 23 -7 57 -19 73 -29 26 -14 81 -17
370 -22 324 -5 342 -7 382 -27 23 -12 47 -22 53 -22 7 0 35 -24 64 -53 42 -42
58 -68 76 -121 25 -75 23 -101 -9 -186 -22 -58 -78 -123 -146 -168 l-40 -27
-605 -5 c-680 -6 -650 -2 -668 -77 -5 -21 -8 -130 -8 -241 1 -197 2 -204 23
-221 27 -23 247 -31 823 -31 427 0 591 9 618 33 9 9 35 19 57 23 93 16 242
116 347 232 74 82 103 123 133 192 9 19 24 51 34 70 55 104 73 364 37 525 -16
70 -54 160 -106 254 -16 28 -100 142 -111 151 -4 3 -31 27 -61 53 -29 26 -69
56 -88 67 -107 57 -181 89 -225 95 -27 4 -63 15 -80 24 -25 13 -81 17 -356 21
-283 4 -329 7 -345 21 -11 9 -29 20 -40 23 -12 4 -45 31 -73 62 -42 45 -54 66
-67 120 -19 75 -10 140 27 201 28 45 132 123 177 134 21 5 296 9 613 9 375 0
586 4 606 10 17 6 35 21 41 33 12 24 17 145 14 355 l-2 133 -35 15 c-29 12
-138 14 -687 13 -359 -1 -675 -5 -701 -9z"/>
<path d="M12990 5069 c-13 -5 -28 -15 -32 -22 -9 -14 -11 -2730 -2 -2775 10
-51 41 -57 284 -57 267 0 286 3 300 53 5 21 10 153 10 310 0 311 1 315 73 326
23 4 48 13 57 20 8 8 49 23 90 34 165 45 196 55 210 67 8 7 33 16 55 20 22 3
60 15 85 25 25 10 71 26 103 35 31 8 57 19 57 24 0 5 26 14 58 20 32 6 67 18
78 25 11 8 38 18 60 22 21 3 52 13 69 22 16 8 52 21 80 27 59 15 166 51 213
71 67 29 62 69 62 -526 l0 -540 27 -17 c24 -16 54 -18 263 -18 190 0 241 3
265 15 l30 15 3 1407 2 1407 -40 11 c-62 17 -512 9 -533 -9 -15 -12 -17 -63
-17 -551 l0 -538 -36 -27 c-19 -15 -62 -33 -95 -41 -33 -8 -70 -20 -82 -28
-12 -7 -40 -17 -62 -21 -21 -4 -55 -15 -75 -25 -19 -10 -55 -21 -80 -25 -25
-4 -54 -13 -65 -19 -11 -7 -42 -18 -68 -25 -27 -6 -65 -20 -85 -31 -20 -11
-48 -20 -62 -20 -14 0 -43 -9 -65 -20 -21 -11 -55 -23 -74 -26 -20 -4 -49 -14
-66 -22 -16 -9 -57 -24 -90 -33 -94 -27 -157 -48 -200 -70 -22 -11 -64 -22
-93 -26 l-52 -6 -2 771 c-2 616 -6 774 -16 784 -17 17 -503 23 -542 7z"/>
<path d="M16128 5069 l-28 -11 0 -1404 0 -1404 27 -17 c24 -16 54 -18 263 -18
190 0 241 3 265 15 l30 15 3 396 2 397 31 6 c84 16 169 2 169 -29 0 -8 15 -47
34 -88 18 -40 41 -95 50 -123 9 -27 30 -67 46 -89 16 -22 38 -56 49 -76 26
-48 180 -209 234 -245 23 -16 54 -38 68 -49 14 -12 52 -34 85 -49 32 -15 80
-39 105 -52 26 -13 54 -24 63 -24 9 0 42 -10 74 -21 51 -20 83 -22 296 -27
164 -3 252 -1 278 7 l38 12 0 249 c0 250 -1 255 -33 281 -1 1 -87 5 -192 8
l-190 6 -108 54 c-79 39 -118 66 -148 100 -38 42 -109 145 -109 156 0 3 24 5
53 5 28 1 70 8 92 16 22 8 63 22 92 30 29 8 74 26 102 39 27 14 51 25 55 25 6
0 52 31 130 89 73 55 192 173 229 229 15 23 38 59 52 80 30 46 70 153 80 212
4 25 13 63 20 85 43 133 12 468 -58 626 -28 63 -104 185 -139 221 -12 13 -30
33 -39 44 -25 31 -139 134 -147 134 -5 0 -22 12 -39 28 -17 15 -46 34 -65 43
-95 47 -147 69 -188 78 -25 5 -63 18 -85 28 -37 17 -91 18 -780 20 -486 1
-749 -2 -767 -8z m1407 -575 c17 -12 41 -25 55 -30 54 -19 107 -59 155 -116
64 -78 91 -126 111 -201 45 -172 -65 -365 -274 -483 l-87 -49 -392 0 c-215 0
-395 4 -400 8 -8 9 -21 796 -14 850 2 17 12 32 25 38 11 4 194 7 406 6 374 -2
386 -3 415 -23z"/>
<path d="M18960 5071 c-35 -10 -39 -43 -39 -271 1 -235 7 -261 63 -272 22 -5
491 -7 1042 -6 947 3 1004 4 1021 21 16 16 18 41 18 265 l0 246 -25 13 c-20
10 -239 13 -1040 12 -558 -1 -1026 -4 -1040 -8z"/>
<path d="M21342 5064 c-33 -23 -29 -72 12 -133 19 -28 38 -60 41 -72 4 -11 23
-48 42 -82 20 -34 47 -82 60 -107 13 -25 35 -63 48 -85 14 -22 35 -58 46 -80
12 -22 30 -51 39 -65 10 -14 40 -66 67 -115 28 -50 67 -119 88 -155 21 -36 44
-77 52 -91 7 -15 20 -32 28 -39 8 -6 19 -28 26 -48 6 -20 25 -56 40 -81 16
-25 39 -66 51 -91 11 -25 38 -71 59 -102 21 -32 49 -81 64 -110 15 -29 34 -62
44 -73 10 -11 35 -54 56 -95 20 -41 43 -82 50 -90 7 -8 22 -33 32 -55 11 -22
35 -67 54 -100 l34 -60 3 -447 c3 -443 3 -448 24 -459 24 -13 370 -23 462 -13
103 11 96 -23 96 483 0 242 4 442 9 445 4 3 23 36 42 73 18 37 41 77 50 88 10
11 36 56 58 100 23 44 45 87 51 95 5 8 37 65 70 125 34 61 76 134 93 162 51
85 197 341 197 346 0 3 39 72 87 154 47 81 94 163 104 182 10 18 24 41 32 50
8 9 31 50 52 90 20 41 48 89 61 106 13 17 33 53 45 81 12 27 39 79 60 116 28
47 39 78 39 106 0 36 -3 41 -31 51 -35 12 -536 14 -578 2 -14 -4 -32 -18 -40
-32 -9 -14 -23 -37 -32 -50 -28 -40 -159 -271 -159 -279 0 -4 -9 -19 -20 -32
-19 -25 -58 -97 -156 -285 -27 -51 -52 -93 -56 -93 -4 0 -24 -33 -44 -72 -20
-40 -51 -96 -69 -124 -18 -28 -42 -70 -54 -95 -11 -24 -29 -56 -38 -70 -10
-15 -27 -41 -38 -58 -10 -17 -23 -31 -27 -31 -11 0 -79 107 -124 195 -14 28
-30 59 -37 70 -7 11 -25 43 -41 70 -16 28 -46 78 -67 112 -22 34 -47 84 -57
111 -11 27 -34 73 -53 103 -19 30 -40 63 -47 74 -7 11 -19 34 -27 51 -7 17
-21 36 -30 44 -8 7 -28 40 -45 74 -16 34 -40 79 -55 99 -14 21 -32 53 -39 70
-24 55 -80 131 -106 144 -18 9 -99 13 -300 13 -233 0 -279 -2 -298 -16z"/>
<path d="M24769 5073 c-19 -5 -78 -114 -114 -213 -30 -82 -41 -107 -78 -190
-14 -30 -28 -67 -32 -82 -4 -15 -13 -32 -21 -39 -8 -6 -14 -16 -14 -21 0 -6
-16 -44 -35 -85 -19 -41 -35 -79 -35 -84 0 -4 -9 -24 -20 -44 -11 -20 -32 -64
-46 -98 -14 -34 -43 -98 -64 -142 -21 -44 -43 -100 -49 -123 -7 -23 -29 -77
-50 -120 -21 -42 -42 -88 -46 -102 -4 -14 -22 -54 -40 -90 -18 -36 -36 -77
-40 -90 -4 -14 -30 -72 -57 -129 -27 -57 -60 -131 -73 -165 -24 -64 -51 -127
-173 -406 -11 -25 -23 -56 -27 -70 -4 -14 -16 -37 -26 -51 -10 -14 -34 -64
-53 -110 -18 -46 -53 -126 -75 -176 -23 -51 -45 -115 -48 -142 -5 -46 -4 -50
23 -67 25 -17 51 -19 269 -19 132 0 257 4 277 8 30 6 41 16 63 54 14 25 28 58
31 72 4 14 13 36 20 48 8 12 28 57 44 100 28 69 55 132 122 279 10 22 18 45
18 50 0 5 20 49 45 98 25 48 45 92 45 97 0 5 20 51 44 102 24 50 50 110 57
132 7 22 21 51 29 65 9 14 31 63 50 110 60 155 107 264 171 397 27 57 49 108
49 115 0 11 24 64 123 266 16 34 33 62 36 62 17 0 164 -292 176 -351 4 -19 13
-43 19 -54 7 -11 30 -58 50 -105 20 -47 43 -98 51 -115 17 -37 53 -124 98
-235 64 -159 124 -295 150 -345 15 -27 27 -53 27 -57 0 -3 20 -49 45 -101 25
-53 45 -102 45 -109 0 -7 6 -22 13 -33 8 -11 19 -33 25 -50 27 -75 115 -283
131 -310 10 -16 21 -42 24 -56 4 -14 18 -47 32 -72 22 -38 33 -48 63 -54 62
-13 524 -9 550 5 45 25 25 123 -59 283 -10 20 -19 42 -19 49 0 7 -22 57 -50
113 -27 55 -50 105 -50 109 0 5 -11 33 -24 61 -13 29 -40 93 -61 142 -20 50
-55 129 -76 176 -21 47 -39 89 -39 93 0 4 -14 37 -31 74 -17 37 -37 81 -45 97
-7 17 -24 56 -38 87 -15 31 -26 61 -26 66 0 5 -8 20 -18 33 -10 13 -29 53 -42
89 -13 36 -38 92 -55 125 -17 33 -39 85 -49 115 -10 30 -30 82 -46 115 -41 88
-90 202 -90 210 0 4 -8 19 -18 33 -11 15 -27 51 -36 81 -10 30 -35 89 -55 130
-44 87 -125 274 -136 311 -24 85 -107 241 -133 251 -23 9 -571 11 -603 2z"/>
<path d="M27499 5071 c-26 -4 -62 -14 -80 -23 -19 -9 -46 -19 -61 -22 -15 -4
-33 -13 -41 -21 -8 -8 -33 -21 -55 -28 -39 -14 -125 -75 -192 -139 -40 -37
-144 -190 -155 -228 -4 -14 -16 -39 -27 -57 -26 -44 -58 -208 -58 -302 0 -146
56 -375 106 -432 8 -8 14 -20 14 -26 0 -29 208 -253 235 -253 7 0 18 -7 25
-15 15 -18 150 -85 171 -85 8 0 34 -10 59 -22 42 -21 63 -23 375 -29 315 -7
333 -8 395 -31 90 -33 159 -101 188 -186 28 -78 27 -96 -1 -175 -27 -75 -86
-142 -162 -184 l-50 -28 -600 -5 c-330 -3 -608 -9 -618 -14 -10 -4 -22 -16
-27 -25 -11 -22 -25 -407 -16 -455 14 -74 -10 -71 626 -72 651 0 812 5 838 30
10 9 38 20 63 24 122 23 313 178 423 342 103 153 150 365 128 577 -21 207
-104 374 -261 524 -100 96 -248 182 -336 194 -27 4 -63 15 -80 24 -25 13 -83
17 -355 22 l-325 6 -51 26 c-91 47 -150 129 -164 226 -6 47 -4 67 17 123 23
62 31 72 101 125 l75 58 624 5 625 5 19 24 c18 21 19 42 19 266 l0 243 -31 11
c-35 12 -1296 14 -1380 2z"/>
<path d="M29618 5069 c-23 -9 -27 -16 -30 -61 -1 -28 -3 -657 -3 -1399 0
-1267 1 -1349 18 -1367 16 -17 37 -20 210 -25 191 -6 330 2 349 21 6 6 10 122
9 306 0 202 3 304 11 321 8 17 24 29 52 36 23 6 57 19 76 29 19 10 55 21 80
25 25 4 64 16 87 26 23 11 50 19 61 19 10 0 40 11 66 25 26 14 56 25 67 25 11
0 41 9 67 20 26 10 67 24 91 30 24 7 60 20 80 31 20 10 47 19 61 19 14 0 41 9
61 19 20 11 54 23 75 27 22 3 53 14 69 24 17 10 48 21 70 25 22 3 60 15 84 26
24 10 51 19 60 19 8 0 39 12 68 26 89 46 83 87 83 -529 0 -495 2 -546 17 -558
22 -19 496 -19 531 0 l22 12 2 1252 c3 1351 1 1557 -14 1572 -13 14 -512 19
-538 5 -20 -11 -20 -19 -20 -529 0 -285 -3 -532 -6 -547 -7 -36 -62 -71 -149
-95 -87 -25 -154 -48 -201 -70 -23 -10 -52 -19 -65 -19 -13 -1 -42 -8 -64 -16
-22 -8 -65 -22 -95 -31 -30 -8 -62 -21 -70 -28 -8 -7 -40 -18 -70 -25 -30 -7
-64 -18 -75 -24 -11 -7 -46 -18 -77 -25 -31 -7 -61 -18 -68 -25 -6 -8 -32 -17
-58 -21 -25 -4 -62 -15 -82 -25 -19 -10 -51 -21 -70 -25 -19 -4 -49 -15 -65
-25 -17 -10 -53 -22 -82 -25 -45 -7 -52 -5 -62 14 -8 15 -11 220 -10 723 2
901 6 804 -32 817 -40 14 -483 13 -521 0z"/>
<path d="M18974 3903 c-12 -2 -30 -13 -39 -23 -15 -16 -16 -43 -13 -247 2
-125 8 -236 12 -246 5 -10 16 -22 25 -27 28 -15 1802 -16 1829 -1 13 7 27 23
32 37 12 31 13 464 2 482 -5 7 -24 17 -43 22 -33 10 -1758 12 -1805 3z"/>
<path d="M18987 2773 c-57 -9 -62 -32 -62 -291 0 -210 2 -235 17 -246 31 -23
195 -26 1148 -20 805 5 938 8 958 20 l23 15 -3 244 c-3 219 -5 246 -21 262
-17 17 -73 18 -1025 19 -554 1 -1019 -1 -1035 -3z"/>
</g>
</svg>
