<svg width="407" height="437" viewBox="0 0 407 437" fill="none" xmlns="http://www.w3.org/2000/svg">
<rect width="398" height="428" transform="translate(4 1)" fill="white"/>
<g filter="url(#filter0_d_309_8)">
<path d="M8.8375 0.116516C7.26324 0.201263 7.0941 0.229492 6.36552 0.653229C5.03846 1.41589 4.85631 1.67014 4.57008 3.22375C4.40095 4.11356 4.19278 10.6812 4.17977 15.6527C4.17977 15.8505 4.19278 106.031 4.2188 216.07C4.24482 326.109 4.2188 416.219 4.16676 416.318C3.99762 416.615 3.93257 423.677 4.0887 424.905C4.30987 426.628 4.90835 427.532 6.0923 427.914C6.31348 427.998 6.75583 428.168 7.08109 428.309C7.64054 428.549 14.5621 428.563 196.252 428.592C299.971 428.62 387.31 428.634 390.316 428.634C393.334 428.648 396.496 428.606 397.341 428.549C398.733 428.465 398.981 428.408 399.813 427.984C401.023 427.363 401.726 426.628 401.947 425.725C402.142 424.948 402.324 417.519 402.181 416.205C402.116 415.612 401.973 26.4292 402.038 14.1697C402.038 12.7715 402.051 10.5964 402.064 9.33939C402.09 5.39883 401.57 2.92715 400.373 1.48651C399.618 0.554352 399.098 0.31424 397.458 0.116516C396.17 -0.0388489 11.8299 -0.0388489 8.8375 0.116516ZM305.566 52.6855C306.633 53.1798 306.607 53.0244 306.75 59.7191C306.828 62.9394 306.893 66.3997 306.893 67.4167C306.893 69.3092 306.906 89.2097 306.906 95.5937C306.906 98.6586 306.867 99.3365 306.659 100.184C306.203 102.034 305.943 102.642 305.501 102.896C304.902 103.235 303.198 103.899 301.767 104.35C301.09 104.562 300.297 104.845 300.01 104.972C299.724 105.085 299.139 105.283 298.709 105.396C297.174 105.791 296.224 106.158 295.171 106.737C294.598 107.048 294.039 107.317 293.935 107.317C293.843 107.317 293.505 107.486 293.18 107.684C292.243 108.263 291.189 108.672 288.861 109.364C286.987 109.915 285.699 110.452 284.164 111.342C283.812 111.54 281.366 112.203 279.831 112.528C278.27 112.839 277.906 112.698 277.463 111.596C277.073 110.579 277.021 109.534 277.008 100.89C276.995 94.6474 277.021 92.7407 277.164 91.8227C277.32 90.8905 277.32 90.3255 277.203 88.8567C276.969 85.9189 276.826 85.3822 275.993 84.2946C275.434 83.5602 275.148 83.3342 274.146 82.8258C273.356 82.4251 272.493 82.1895 271.609 82.1333L270.282 82.049C268.33 81.9218 253.784 81.8795 215.117 81.8936C158.249 81.8936 134.05 81.9783 132.111 82.1761C130.186 82.3879 128.793 82.967 127.974 83.9274C126.621 85.5234 126.647 85.2268 126.647 99.3365C126.634 109.082 126.673 111.441 126.829 112.571C126.933 113.333 127.076 114.054 127.154 114.195C127.219 114.336 127.649 114.83 128.104 115.282C128.546 115.748 129.34 116.553 129.834 117.076C130.732 118.008 131.265 118.305 132.371 118.531C133.672 118.799 136.379 119.788 137.224 120.296C138.187 120.89 140.086 121.61 142.337 122.231C144.107 122.712 144.328 122.81 144.874 123.347C145.668 124.11 146.93 124.618 148.66 124.887C150.039 125.113 150.586 125.324 151.432 126.031C151.913 126.412 153.682 126.977 155.465 127.302C157.221 127.627 158.678 128.177 160.604 129.223C161.853 129.886 162.634 130.211 163.987 130.578C166.055 131.129 166.328 131.242 167.122 131.779C167.968 132.344 169.191 132.852 170.206 133.078C171.806 133.432 173.809 134.039 174.018 134.237C174.122 134.35 174.265 134.434 174.33 134.434C174.395 134.434 174.655 134.59 174.915 134.787C175.345 135.112 178.662 136.412 179.079 136.412C179.183 136.412 180.002 136.765 180.9 137.203C183.619 138.516 183.919 138.629 185.792 139.166C187.119 139.547 188.017 139.9 189.162 140.522C190.502 141.242 194.47 142.767 195.003 142.767C195.081 142.767 195.42 142.951 195.745 143.177C196.422 143.629 197.892 144.18 199.57 144.603C201.639 145.126 203.473 145.747 203.668 145.988C204.15 146.595 206.01 147.485 207.702 147.923C208.235 148.05 209.289 148.502 210.043 148.911C211.735 149.815 212.19 149.971 215.352 150.606C217.42 151.016 218.032 151.199 218.799 151.623C219.32 151.891 219.892 152.273 220.087 152.456C220.465 152.781 220.894 152.951 223.184 153.586C224.485 153.939 225.929 154.603 226.111 154.914C226.28 155.21 227.061 155.521 228.896 156.044C231.862 156.877 232.734 157.202 234.763 158.191C236.715 159.165 237.326 159.391 238.861 159.772C239.369 159.9 240.032 160.154 240.358 160.337C242.348 161.496 242.817 161.693 244.43 162.046C246.121 162.414 247.279 162.823 247.657 163.19C247.761 163.303 247.904 163.388 247.943 163.388C247.995 163.388 248.268 163.572 248.554 163.798C248.854 164.024 249.53 164.334 250.142 164.518C252.236 165.111 253.628 165.648 254.929 166.354C255.32 166.566 255.97 166.849 256.361 166.976C256.751 167.103 257.375 167.329 257.727 167.47C258.091 167.625 259.08 167.908 259.938 168.12C262.124 168.656 262.254 168.713 263.23 169.419C264.713 170.492 265.012 170.605 267.549 171.072C267.797 171.128 268.382 171.382 268.85 171.651C270.711 172.738 271.296 172.992 272.298 173.204C274.354 173.628 277.086 174.532 278.79 175.379C279.727 175.831 280.989 176.354 281.601 176.523C283.409 177.032 284.736 177.526 285.569 178.02C286.428 178.529 286.831 178.67 289.407 179.419C291.502 180.026 292.555 180.45 293.622 181.156C294.455 181.707 295.574 182.131 298.189 182.879C299.048 183.133 299.893 183.444 300.075 183.585C300.596 183.981 301.676 184.475 303.523 185.125C304.46 185.464 305.423 185.902 305.67 186.099C305.993 186.358 306.221 186.684 306.309 187.088C306.356 187.303 306.41 187.561 306.464 187.837C306.75 189.15 306.75 189.32 306.815 212.61C306.906 249.162 306.841 257.82 306.438 258.654C306.164 259.204 304.772 260.292 303.757 260.73C303.198 260.97 302.626 261.252 302.482 261.351C302.092 261.62 299.763 262.523 298.644 262.82C297.226 263.201 296.667 263.442 295.678 264.077C294.767 264.67 294.169 264.882 291.879 265.433C290.617 265.744 289.901 265.984 288.171 266.732C287.82 266.888 286.935 267.227 286.219 267.481C285.504 267.735 284.658 268.088 284.333 268.258C284.008 268.427 283.513 268.653 283.227 268.752C282.941 268.851 282.472 269.035 282.186 269.176C281.9 269.317 281.288 269.6 280.82 269.811C280.352 270.023 279.805 270.277 279.584 270.376C279.077 270.631 277.567 271.153 277.359 271.153C277.268 271.153 276.475 271.379 275.59 271.647C274.536 271.986 273.833 272.283 273.534 272.551C273.014 272.989 272.897 273.046 270.152 273.978C269.046 274.359 267.667 274.924 267.094 275.249C266.522 275.574 265.611 275.969 265.077 276.111C263.802 276.464 260.329 277.749 259.743 278.074C258.989 278.498 257.128 279.303 256.295 279.571C254.864 280.009 252.796 280.913 252.054 281.393C251.651 281.661 251.039 281.944 250.688 282.029C249.465 282.325 245.354 283.78 244.326 284.288C243.871 284.514 243.038 284.825 242.478 284.98C241.19 285.348 239.096 286.153 238.068 286.689C237.626 286.915 236.129 287.466 234.75 287.89C232.239 288.681 229.312 289.74 226.957 290.715C226.28 290.997 225.123 291.435 224.394 291.703C223.665 291.972 222.716 292.452 222.26 292.763C221.428 293.342 220.413 293.737 218.565 294.175C216.718 294.627 215.976 294.895 215.131 295.404C214.337 295.884 214.051 295.997 212.125 296.562C211.657 296.703 210.551 297.198 209.653 297.664C208.222 298.426 204.436 299.881 203.148 300.178C202.536 300.319 200.78 300.954 200.611 301.096C200.156 301.491 198.204 302.395 197.28 302.649C195.628 303.101 194.665 303.539 193.598 304.302C193.247 304.556 192.844 304.796 192.688 304.839C190.515 305.361 188.81 305.841 188.407 306.067C188.134 306.209 187.314 306.491 186.599 306.689C185.883 306.886 184.959 307.225 184.556 307.437C184.153 307.663 183.476 307.988 183.047 308.158C182.617 308.341 182.214 308.539 182.136 308.595C182.071 308.652 181.629 308.807 181.173 308.934C180.263 309.189 179.69 309.471 178.558 310.22C177.661 310.813 177.01 311.039 174.785 311.477C172.599 311.929 170.661 312.578 169.217 313.369C168.944 313.511 168.449 313.708 168.085 313.793C167.044 314.076 162.634 315.996 162.23 316.364C162.022 316.533 160.149 317.155 157.559 317.903C156.987 318.073 156.167 318.412 155.738 318.68C155.296 318.934 154.073 319.443 152.993 319.81C151.926 320.177 150.807 320.587 150.521 320.728C150.235 320.869 149.675 321.137 149.285 321.335C148.895 321.519 147.958 321.886 147.203 322.14C146.449 322.394 145.395 322.776 144.861 322.988C144.328 323.2 143.183 323.609 142.337 323.906C141.479 324.202 140.451 324.626 140.06 324.866C139.657 325.092 139.046 325.389 138.681 325.53C136.639 326.293 134.713 327.14 134.31 327.451C133.698 327.903 131.526 328.708 129.899 329.089C129.093 329.273 127.818 329.414 126.191 329.485C122.77 329.654 103.67 329.654 100.899 329.485L99.4907 329.406C98.9326 329.374 98.3957 329.181 97.9458 328.849C96.931 328.086 96.8529 327.917 96.8529 326.137C96.8399 320.191 96.983 286.139 97.022 284.147C97.0741 282.269 97.1391 281.548 97.2952 281.181C97.7766 280.051 98.4922 278.738 98.6744 278.625C98.9346 278.483 101.354 277.692 101.927 277.579C102.955 277.354 107.886 275.348 108.835 274.755C109.031 274.642 109.616 274.444 110.137 274.331C110.735 274.19 111.698 273.794 112.661 273.286C114.118 272.495 115.015 272.198 117.162 271.718C118.073 271.52 119.556 270.941 120.011 270.616C121.013 269.882 122.197 269.501 124.032 269.317C126.178 269.105 126.53 269.388 126.79 271.506C126.907 272.509 126.907 273.526 126.777 276.238C126.582 280.32 126.673 291.506 126.894 292.819C127.063 293.737 127.596 294.698 128.208 295.164C128.533 295.418 128.858 295.489 129.873 295.545C130.602 295.587 131.461 295.545 131.916 295.46C132.345 295.361 133.152 295.206 133.711 295.093C134.7 294.895 137.888 293.85 138.148 293.624C138.226 293.568 138.642 293.37 139.072 293.186C139.501 293.003 139.917 292.819 139.982 292.763C140.06 292.706 141.049 292.339 142.194 291.929C143.534 291.477 144.575 291.025 145.095 290.658C145.98 290.065 146.748 289.783 148.179 289.514C149.675 289.232 151.367 288.794 151.731 288.582C151.926 288.469 152.134 288.384 152.186 288.384C152.251 288.384 152.72 288.172 153.227 287.904C153.747 287.636 155.218 287.057 156.506 286.605C158.262 285.983 159.069 285.616 159.758 285.136C160.682 284.486 162.308 283.865 164.377 283.356C166.185 282.918 166.693 282.721 167.395 282.17C168.306 281.464 168.8 281.266 170.557 280.899C172.521 280.475 173.484 280.051 175.176 278.851C175.423 278.667 175.956 278.455 176.346 278.356C176.737 278.272 177.504 278.046 178.038 277.862C178.571 277.678 179.547 277.368 180.185 277.156C180.835 276.944 181.889 276.492 182.526 276.153C183.177 275.814 184.712 275.178 185.961 274.755C187.822 274.119 188.342 273.879 188.941 273.399C189.721 272.763 191.139 272.241 193.26 271.803C194.444 271.563 196.252 270.871 197.658 270.122C198.139 269.854 199.115 269.472 199.83 269.261C202.575 268.427 202.914 268.3 203.668 267.82C204.787 267.114 205.204 266.944 207.246 266.337C210.434 265.405 210.928 265.235 212.294 264.571C213.023 264.232 214.064 263.809 214.597 263.668C217.772 262.778 218.11 262.636 219.216 261.761C219.853 261.252 221.245 260.73 222.546 260.49C224.056 260.207 225.903 259.543 226.71 259.007C227.048 258.781 227.933 258.399 228.674 258.159C230.522 257.552 233.28 256.38 233.983 255.899C234.659 255.433 237.014 254.614 238.822 254.205C239.525 254.049 240.254 253.851 240.449 253.767C240.839 253.611 241.685 253.032 242.114 252.637C242.413 252.354 243.233 252.072 244.781 251.719C245.978 251.45 246.382 251.281 247.188 250.744C248.424 249.911 249.322 249.501 251.117 248.979C253.355 248.329 255.489 247.566 256.426 247.1C257.258 246.677 257.961 246.394 259.418 245.942C261.825 245.194 262.306 244.996 263.23 244.374C263.854 243.979 264.466 243.696 264.986 243.598C267.029 243.174 268.46 242.722 269.735 242.086C270.503 241.705 271.57 241.253 272.103 241.069C273.183 240.73 274.939 239.558 275.811 238.598C276.344 238.019 276.774 236.988 277.06 235.632C277.151 235.137 277.177 233.527 277.112 230.265C277.073 227.694 277.008 222.398 276.982 218.471C276.93 210.576 276.852 209.418 276.357 208.613C275.837 207.751 274.536 206.409 273.469 205.647C272.571 204.997 270.997 204.305 269.696 203.994C269.488 203.952 268.655 203.556 267.862 203.147C266.574 202.469 264.557 201.791 262.866 201.452C261.773 201.226 260.303 200.633 259.626 200.124C259.223 199.828 258.637 199.475 258.312 199.362C257.388 199.009 254.136 197.992 253.954 197.992C253.863 197.992 253.654 197.865 253.472 197.709C253.03 197.342 247.8 195.478 245.926 195.026C245.588 194.955 245.015 194.687 244.677 194.461C244.326 194.221 243.975 194.037 243.884 194.037C243.805 194.037 243.389 193.853 242.973 193.613C242.543 193.387 241.242 192.935 240.071 192.625C238.705 192.257 237.782 191.932 237.495 191.706C236.871 191.24 235.648 190.718 234.698 190.506C232.734 190.096 230.509 189.263 228.791 188.317C228.297 188.048 227.868 187.822 227.816 187.822C227.764 187.822 227.477 187.709 227.178 187.568C226.228 187.116 225.24 186.707 224.095 186.325C223.483 186.128 222.442 185.676 221.766 185.323C219.905 184.362 219.463 184.207 217.915 183.924C216.666 183.698 216.38 183.599 215.716 183.119C215.091 182.653 212.203 181.467 211.722 181.467C211.67 181.467 210.785 181.057 209.757 180.563C208.066 179.744 205.308 178.713 202.172 177.724C201.535 177.526 200.741 177.201 200.416 177.018C198.36 175.817 197.163 175.266 196.057 175.04C195.42 174.913 194.704 174.687 194.483 174.532C193.78 174.066 192.414 173.586 191.178 173.346C189.838 173.091 186.534 171.947 185.805 171.467C185.545 171.312 185.05 171.072 184.712 170.959C184.361 170.846 183.424 170.45 182.604 170.097C181.798 169.744 180.744 169.348 180.276 169.235C179.508 169.038 178.597 168.671 177.452 168.106C176.685 167.724 174.824 167.089 173.809 166.849C172.326 166.495 171.767 166.284 170.297 165.493C169.581 165.097 168.527 164.631 167.955 164.447C166.328 163.925 165.184 163.473 163.974 162.851C162.594 162.145 160.968 161.524 159.121 160.973C158.34 160.747 157.039 160.21 156.232 159.787C155.413 159.363 153.93 158.756 152.902 158.431C151.874 158.106 150.456 157.541 149.74 157.174C148.296 156.439 147.32 156.072 145.408 155.549C143.625 155.055 142.754 154.716 141.752 154.109C140.23 153.191 139.098 152.696 136.873 152.018C136.457 151.891 135.806 151.609 135.442 151.383C134.245 150.663 131.187 149.73 127.948 149.109C126.452 148.827 126.243 148.742 125.203 148.064C124.019 147.273 122.77 146.75 121.182 146.383C120.493 146.214 119.894 145.945 119.153 145.465C117.995 144.716 117.722 144.603 116.173 144.25C114.482 143.869 112.361 143.092 110.969 142.344C109.057 141.327 105.752 139.943 105.232 139.943C105.141 139.943 104.685 139.759 104.204 139.519C103.735 139.293 102.343 138.756 101.133 138.332C98.9866 137.57 98.1539 137.188 98.1539 136.934C98.1539 136.864 97.9458 136.341 97.6986 135.776C97.4384 135.197 97.1782 134.364 97.1131 133.912C97.035 133.417 96.983 120.734 96.983 101.625C96.983 78.8428 96.944 69.9731 96.8399 69.5211C96.7358 69.1115 96.7228 68.3065 96.7748 67.233C96.8269 66.3291 96.9049 62.9111 96.957 59.6485C97.0611 53.0809 97.035 53.3493 97.9458 52.7702C98.3881 52.5019 98.7264 52.4312 99.9103 52.3748C100.704 52.3324 147.151 52.3182 203.135 52.3465L304.225 52.3886C304.688 52.3888 305.146 52.4901 305.566 52.6855ZM205.099 372.195C296.537 372.223 320.307 372.266 320.788 372.407C322.245 372.831 322.909 373.791 323.065 375.74C323.234 377.76 323.169 390.613 322.987 391.291C322.883 391.7 322.57 392.18 321.959 392.858C321.178 393.762 321.022 393.861 320.437 393.96C319.578 394.101 89.437 394.2 85.6509 394.059L84.033 394.004C83.1749 393.976 82.3497 393.667 81.6828 393.127C81.1103 392.661 80.5248 392.124 80.3687 391.926C80.1752 391.689 80.0695 391.392 80.0695 391.085V383.494C80.0695 378.593 80.1215 375.133 80.1996 374.667C80.3687 373.735 80.7981 373.226 82.0861 372.492C82.6823 372.159 83.3569 371.992 84.0396 372.008L86.5096 372.068C88.4482 372.125 141.804 372.181 205.099 372.195Z" fill="url(#paint0_linear_309_8)"/>
</g>
<defs>
<filter id="filter0_d_309_8" x="0" y="0" width="406.232" height="436.637" filterUnits="userSpaceOnUse" color-interpolation-filters="sRGB">
<feFlood flood-opacity="0" result="BackgroundImageFix"/>
<feColorMatrix in="SourceAlpha" type="matrix" values="0 0 0 0 0 0 0 0 0 0 0 0 0 0 0 0 0 0 127 0" result="hardAlpha"/>
<feOffset dy="4"/>
<feGaussianBlur stdDeviation="2"/>
<feComposite in2="hardAlpha" operator="out"/>
<feColorMatrix type="matrix" values="0 0 0 0 0 0 0 0 0 0 0 0 0 0 0 0 0 0 0.25 0"/>
<feBlend mode="normal" in2="BackgroundImageFix" result="effect1_dropShadow_309_8"/>
<feBlend mode="normal" in="SourceGraphic" in2="effect1_dropShadow_309_8" result="shape"/>
</filter>
<linearGradient id="paint0_linear_309_8" x1="203.116" y1="428.637" x2="203.116" y2="0" gradientUnits="userSpaceOnUse">
<stop stop-color="#1CDAC6"/>
<stop offset="1" stop-color="#037EFE"/>
</linearGradient>
</defs>
</svg>
