<?xml version="1.0" standalone="no"?>
<!DOCTYPE svg PUBLIC "-//W3C//DTD SVG 20010904//EN"
 "http://www.w3.org/TR/2001/REC-SVG-20010904/DTD/svg10.dtd">
<svg version="1.0" xmlns="http://www.w3.org/2000/svg"
 width="200" viewBox="0 0 3264.000000 493.000000"
 preserveAspectRatio="xMidYMid meet">

<g transform="translate(0.000000,493.000000) scale(0.100000,-0.100000)"
fill="#0000ff" stroke="none">
<path d="M2085 4403 c-90 -6 -186 -23 -208 -37 -12 -8 -41 -19 -65 -26 -23 -6
-73 -26 -110 -45 -37 -19 -73 -35 -81 -35 -14 0 -107 -66 -150 -107 -12 -12
-30 -25 -40 -28 -16 -6 -126 -133 -184 -215 -72 -99 -94 -143 -153 -290 -7
-19 -23 -82 -35 -140 -29 -143 -24 -428 11 -560 12 -47 25 -89 29 -95 4 -5 18
-39 31 -75 13 -36 31 -74 40 -85 10 -11 21 -31 25 -44 4 -13 22 -40 39 -60 18
-20 42 -52 54 -71 43 -72 251 -252 345 -301 7 -3 26 -14 42 -23 51 -29 108
-52 144 -59 19 -4 59 -20 90 -35 l56 -27 465 -6 465 -5 67 -32 c37 -18 74 -32
81 -32 24 0 155 -135 175 -181 19 -42 44 -118 55 -167 3 -13 -9 -67 -26 -122
-27 -84 -39 -106 -84 -155 -29 -32 -53 -61 -53 -66 0 -5 -24 -21 -52 -35 -29
-15 -56 -31 -59 -36 -20 -30 -148 -35 -921 -36 -534 -1 -790 -5 -820 -12 -80
-21 -82 -29 -91 -320 -9 -301 -4 -391 24 -416 33 -30 188 -35 999 -34 849 1
995 7 1036 39 15 12 35 21 45 21 10 0 21 4 24 10 3 5 21 10 38 10 18 0 43 7
57 15 14 8 52 28 85 44 33 16 69 38 81 49 11 11 35 27 52 36 39 20 202 182
243 242 16 24 34 44 38 44 5 0 14 14 21 30 7 17 25 48 39 68 15 20 33 57 41
82 7 25 21 54 31 65 18 20 27 49 55 175 30 135 36 206 30 334 -7 160 -44 336
-86 411 -10 16 -26 53 -36 80 -10 28 -24 55 -30 60 -7 6 -23 30 -35 55 -13 25
-26 47 -29 50 -3 3 -21 25 -40 50 -48 62 -73 91 -88 104 -8 6 -40 36 -72 67
-32 31 -83 67 -112 81 -30 15 -61 33 -69 40 -30 30 -195 97 -254 104 -33 4
-85 19 -115 33 l-55 26 -446 5 -446 5 -52 33 c-29 17 -57 32 -63 32 -6 0 -45
36 -88 81 -77 80 -78 82 -99 169 -26 109 -26 107 2 199 19 66 30 83 82 136 64
65 142 121 190 139 20 7 307 12 889 16 l858 5 28 34 c26 30 29 42 35 145 3 61
2 212 -2 336 l-8 225 -50 17 c-45 15 -132 16 -915 15 -476 0 -887 -2 -915 -4z"/>
<path d="M4984 4399 c-82 -19 -74 187 -74 -1987 0 -1067 3 -1949 7 -1959 13
-35 34 -45 111 -55 99 -13 532 -12 613 1 35 6 70 18 78 26 14 14 17 73 21 438
l5 422 24 33 c19 24 32 32 56 32 32 0 87 22 116 46 8 8 38 17 65 20 27 4 54
10 59 14 6 4 28 11 50 14 22 4 50 14 62 22 12 7 41 16 65 20 46 6 123 37 132
53 4 5 28 13 54 17 26 5 49 9 52 9 52 14 70 20 95 35 17 10 50 21 74 25 52 9
111 32 126 50 5 7 33 17 60 23 96 20 140 33 146 43 6 10 42 21 120 38 20 4 52
18 71 29 20 12 45 22 57 22 29 0 151 39 176 56 11 8 28 14 38 14 26 0 146 40
153 51 9 16 43 10 53 -10 7 -12 10 -284 9 -760 -2 -660 0 -743 14 -757 22 -22
129 -33 375 -37 220 -4 370 8 411 34 22 14 22 17 22 254 2 2796 -1 3690 -10
3699 -30 30 -99 36 -406 36 -254 0 -319 -3 -356 -15 l-45 -16 -6 -72 c-3 -40
-4 -371 -2 -737 2 -382 -1 -680 -6 -700 -13 -49 -102 -105 -181 -115 -32 -3
-80 -19 -110 -34 -29 -16 -72 -31 -95 -35 -22 -3 -69 -19 -102 -35 -34 -16
-86 -32 -117 -36 -31 -4 -70 -15 -87 -25 -18 -11 -63 -26 -100 -35 -38 -9 -85
-27 -105 -40 -22 -14 -65 -29 -107 -35 -38 -6 -85 -19 -105 -30 -44 -23 -96
-40 -125 -40 -12 0 -40 -12 -61 -27 -23 -15 -68 -32 -109 -39 -38 -8 -90 -25
-115 -38 -25 -13 -65 -26 -90 -30 -25 -4 -71 -20 -102 -36 -65 -34 -159 -50
-183 -30 -13 11 -15 138 -15 1077 0 683 -4 1071 -10 1083 -6 11 -30 23 -60 29
-62 13 -627 13 -686 0z"/>
<path d="M9399 4394 c-33 -10 -48 -20 -53 -36 -3 -13 -6 -897 -6 -1965 0
-1845 1 -1942 18 -1963 26 -32 178 -50 427 -50 211 0 332 16 367 47 17 15 18
54 18 557 0 321 4 547 10 556 13 21 227 28 251 8 9 -7 28 -44 41 -83 14 -38
37 -95 51 -125 14 -30 35 -82 47 -115 25 -69 47 -109 102 -181 21 -28 38 -55
38 -60 0 -5 13 -24 28 -42 15 -18 47 -57 72 -87 25 -31 82 -88 127 -128 116
-103 133 -117 145 -117 6 0 28 -16 50 -36 22 -19 58 -44 81 -55 23 -11 53 -26
67 -34 14 -8 33 -15 43 -15 22 0 69 -24 86 -43 6 -8 28 -18 49 -22 45 -8 90
-21 162 -49 52 -20 73 -21 427 -21 344 0 374 1 390 18 17 16 18 45 18 357 l0
339 -23 23 c-22 22 -30 23 -270 30 -268 7 -305 11 -341 39 -13 11 -28 19 -33
19 -11 0 -69 24 -109 46 -15 8 -46 24 -69 36 -54 29 -174 157 -206 219 -13 26
-28 50 -34 54 -5 3 -10 14 -10 23 0 15 17 20 102 30 58 7 117 20 138 31 20 10
56 22 80 26 25 4 50 11 55 15 6 4 25 11 43 15 18 4 36 13 39 21 3 8 12 14 20
14 36 0 168 76 207 119 11 12 24 21 30 21 6 0 38 24 71 53 34 28 79 67 102 85
48 37 179 198 207 254 10 20 27 46 37 57 35 38 99 217 118 331 4 25 16 72 26
105 29 96 28 394 -3 540 -13 61 -28 124 -33 141 -5 17 -9 42 -9 55 0 14 -7 34
-15 45 -8 10 -15 25 -15 33 0 17 -50 124 -60 131 -4 3 -24 35 -44 71 -20 36
-45 74 -56 84 -11 10 -20 22 -20 27 0 5 -16 22 -35 39 -19 17 -35 37 -35 44 0
7 -18 28 -40 46 -22 19 -66 58 -97 87 -31 29 -70 60 -87 69 -17 9 -42 28 -57
43 -15 14 -67 46 -116 69 -48 24 -104 51 -123 61 -19 9 -69 25 -110 35 -41 9
-86 24 -100 33 -57 35 -221 41 -1195 41 -785 0 -948 -3 -986 -15z m1879 -778
c40 -8 81 -21 90 -29 9 -9 40 -24 67 -35 75 -29 121 -61 184 -123 76 -76 95
-100 141 -179 44 -75 71 -174 72 -260 0 -62 -28 -197 -46 -220 -7 -8 -25 -37
-41 -65 -33 -57 -49 -77 -125 -152 -50 -49 -188 -143 -210 -143 -5 0 -32 -15
-61 -32 l-52 -33 -516 -3 c-547 -4 -584 -1 -601 41 -4 12 -9 259 -9 549 -1
290 -4 533 -6 540 -3 7 -2 39 2 72 8 55 10 59 43 71 53 19 968 20 1068 1z"/>
<path d="M13411 4400 c-89 -13 -85 0 -88 -328 -2 -301 6 -385 41 -421 15 -15
136 -16 1442 -19 784 -1 1439 1 1457 6 19 5 41 21 55 42 22 32 22 37 22 354 0
177 -4 326 -8 333 -4 7 -27 19 -51 28 -38 13 -209 15 -1430 14 -762 -1 -1410
-5 -1440 -9z"/>
<path d="M16755 4398 c-16 -6 -36 -15 -42 -21 -15 -11 -18 -117 -4 -117 5 0
14 -14 22 -31 7 -18 22 -43 34 -58 13 -14 33 -51 45 -81 13 -30 29 -62 36 -70
6 -8 21 -36 33 -62 11 -26 26 -50 31 -53 6 -4 24 -34 40 -68 31 -65 48 -94
112 -191 21 -32 38 -64 38 -70 0 -7 16 -35 35 -62 19 -27 35 -54 35 -60 0 -6
6 -17 14 -23 8 -7 31 -46 52 -89 20 -42 51 -97 68 -122 17 -25 39 -63 49 -85
18 -39 61 -109 118 -192 16 -23 29 -46 29 -52 0 -16 57 -128 95 -186 18 -27
41 -67 52 -87 30 -60 85 -152 103 -173 10 -11 35 -55 55 -98 20 -43 45 -87 54
-96 10 -10 34 -47 53 -82 78 -146 101 -185 113 -199 7 -8 25 -40 40 -70 44
-91 92 -180 107 -197 10 -13 14 -140 18 -647 l5 -631 28 -13 c20 -10 112 -16
315 -23 243 -7 298 -6 362 7 43 8 80 22 88 31 9 13 12 113 13 417 1 780 3 831
19 851 15 18 33 50 84 152 16 32 40 70 52 86 13 15 44 69 69 119 25 51 50 97
55 103 8 10 33 55 111 205 22 41 46 82 54 90 8 9 15 24 15 32 0 9 7 21 16 29
8 7 27 36 41 63 14 28 40 71 57 96 18 25 40 61 49 80 10 19 35 64 57 100 43
72 77 134 116 213 15 28 34 63 44 77 9 14 41 70 70 125 29 55 66 118 82 139
15 22 28 44 28 48 0 5 16 31 35 59 19 28 35 57 35 65 0 7 13 28 29 46 15 18
54 83 86 145 32 62 65 120 74 130 20 22 91 159 91 176 0 7 16 34 35 61 19 27
35 54 35 59 0 5 9 20 20 34 15 20 20 41 20 89 l0 62 -48 16 c-41 14 -102 16
-398 15 -398 -1 -427 -5 -457 -59 -10 -19 -27 -44 -36 -55 -10 -11 -36 -51
-58 -90 -22 -38 -70 -121 -107 -183 -36 -62 -66 -117 -66 -121 0 -4 -13 -26
-28 -47 -30 -41 -122 -212 -122 -226 0 -4 -13 -27 -30 -50 -16 -22 -30 -46
-30 -52 0 -6 -12 -29 -27 -51 -15 -22 -37 -61 -49 -86 -12 -25 -38 -67 -58
-93 -20 -26 -36 -51 -36 -56 0 -10 -84 -163 -124 -225 -18 -27 -45 -75 -59
-105 -43 -90 -125 -216 -147 -225 -16 -7 -31 10 -65 66 -11 19 -34 59 -52 89
-18 30 -45 80 -60 110 -14 30 -37 69 -50 86 -13 17 -23 35 -23 41 0 6 -9 21
-19 35 -11 13 -38 60 -61 104 -23 43 -46 81 -51 85 -13 8 -89 158 -90 177 0 9
-22 51 -50 92 -27 41 -59 95 -72 120 -41 79 -69 124 -98 162 -16 20 -41 60
-54 90 -14 29 -43 82 -65 118 -22 36 -51 85 -64 110 -27 53 -82 142 -113 186
-15 21 -36 35 -65 42 -58 15 -752 15 -793 0z"/>
<path d="M21561 4392 c-19 -9 -43 -33 -54 -52 -47 -83 -82 -162 -119 -263 -21
-60 -49 -132 -62 -161 -13 -28 -37 -80 -53 -116 -17 -36 -34 -76 -38 -90 -4
-14 -13 -32 -21 -40 -7 -9 -20 -34 -28 -56 -7 -22 -30 -75 -50 -117 -20 -43
-36 -81 -36 -84 0 -4 -15 -39 -34 -78 -19 -38 -51 -108 -71 -155 -20 -47 -56
-125 -81 -175 -24 -49 -55 -126 -68 -170 -13 -44 -45 -120 -71 -170 -26 -49
-58 -121 -72 -160 -21 -58 -88 -209 -124 -278 -5 -9 -17 -39 -25 -65 -9 -26
-24 -58 -34 -72 -17 -24 -100 -212 -100 -226 0 -4 -21 -52 -46 -108 -75 -162
-82 -180 -89 -206 -4 -14 -21 -54 -37 -90 -17 -36 -36 -78 -43 -95 -7 -16 -24
-55 -38 -85 -14 -30 -30 -74 -36 -96 -6 -23 -20 -53 -32 -67 -20 -27 -109
-221 -109 -240 0 -6 -18 -47 -39 -91 -84 -174 -99 -216 -103 -281 -3 -71 7
-93 45 -99 225 -34 737 -28 796 8 16 10 68 108 85 161 9 28 33 84 53 125 19
41 39 84 44 95 4 11 17 40 27 65 11 25 23 56 27 70 4 14 20 48 36 76 16 28 29
58 29 66 0 8 16 45 35 84 19 38 35 77 35 86 0 10 14 40 30 66 17 27 30 52 30
56 0 4 16 40 35 79 19 39 35 77 35 84 0 7 22 57 49 111 50 101 101 222 101
242 0 6 14 31 30 55 17 24 30 46 30 50 0 5 68 182 99 260 16 38 52 120 62 138
5 9 23 52 40 95 17 42 38 88 47 102 24 36 98 211 107 251 4 18 17 49 30 69 21
34 106 215 119 254 9 27 68 116 76 116 16 0 64 -76 96 -149 34 -80 108 -226
123 -245 5 -6 16 -39 25 -73 8 -34 38 -108 67 -165 28 -57 62 -132 75 -167 13
-36 28 -69 33 -75 4 -6 20 -42 35 -81 15 -38 31 -74 35 -80 4 -5 13 -30 20
-55 15 -53 62 -166 97 -231 13 -26 35 -76 48 -110 31 -81 41 -102 97 -214 26
-50 50 -107 54 -125 4 -19 13 -42 20 -50 7 -8 25 -44 40 -79 14 -35 32 -73 40
-85 7 -12 21 -46 30 -76 10 -30 24 -62 31 -71 8 -8 14 -22 14 -30 0 -8 14 -43
31 -79 17 -36 44 -99 59 -140 43 -114 91 -223 105 -240 7 -8 21 -39 31 -68 25
-78 73 -162 98 -171 35 -14 220 -31 334 -31 185 0 454 21 481 37 22 14 23 20
19 84 -4 46 -14 87 -33 126 -15 32 -31 67 -35 78 -4 11 -24 54 -43 95 -20 41
-39 86 -42 99 -7 23 -59 132 -110 231 -13 25 -27 62 -30 82 -4 20 -13 42 -20
48 -8 6 -19 28 -26 48 -6 20 -30 82 -54 137 -23 55 -58 136 -76 180 -18 44
-45 103 -60 130 -15 28 -35 76 -44 107 -10 32 -24 63 -31 69 -8 6 -14 19 -14
28 0 9 -21 56 -45 105 -25 50 -45 95 -45 102 0 7 -11 34 -25 60 -14 26 -25 52
-25 59 0 6 -13 31 -28 56 -15 24 -45 89 -66 143 -20 55 -54 131 -75 171 -21
39 -51 109 -66 156 -15 46 -47 125 -70 174 -56 118 -102 224 -111 254 -3 14
-20 46 -35 72 -16 26 -39 75 -50 110 -11 35 -39 100 -61 144 -22 44 -64 134
-93 200 -29 66 -62 141 -74 167 -11 26 -21 51 -21 56 0 23 -63 169 -131 302
-40 80 -53 96 -81 106 -23 9 -144 13 -418 13 -343 0 -389 -2 -419 -17z"/>
<path d="M25414 4396 c-44 -6 -100 -21 -125 -34 -24 -12 -63 -27 -86 -32 -24
-6 -51 -19 -60 -29 -10 -11 -42 -27 -71 -37 -30 -9 -67 -28 -82 -40 -15 -13
-31 -24 -34 -24 -18 0 -199 -169 -226 -210 -17 -26 -39 -55 -50 -65 -11 -10
-20 -22 -20 -27 0 -5 -15 -33 -34 -62 -18 -29 -37 -63 -41 -77 -4 -13 -20 -49
-35 -79 -57 -115 -84 -263 -84 -450 1 -169 36 -369 75 -436 11 -17 19 -38 19
-46 0 -16 29 -80 40 -88 4 -3 19 -29 34 -58 15 -29 40 -64 56 -79 17 -14 30
-33 30 -42 0 -23 168 -183 248 -236 40 -26 74 -51 78 -56 3 -5 16 -9 28 -9 13
0 34 -8 47 -19 37 -28 80 -48 121 -54 21 -3 66 -19 100 -36 l64 -30 449 -4
450 -4 72 -31 c40 -18 81 -32 92 -32 12 0 52 -32 98 -77 70 -71 80 -85 105
-158 15 -44 27 -97 28 -117 0 -43 -20 -138 -30 -138 -4 0 -10 -17 -14 -38 -4
-26 -17 -48 -38 -68 -18 -17 -48 -49 -67 -72 -19 -22 -48 -47 -65 -53 -17 -7
-47 -23 -66 -35 -66 -42 -149 -45 -963 -42 -847 3 -806 6 -840 -64 -16 -33
-18 -71 -20 -347 -2 -372 -11 -348 130 -363 48 -5 437 -8 863 -8 914 0 1029 5
1066 38 19 18 74 37 130 46 100 16 420 271 509 406 17 25 36 51 43 58 7 8 20
28 28 45 9 18 22 39 29 47 17 20 101 271 116 345 13 66 17 335 6 431 -15 127
-103 344 -195 482 -30 45 -59 82 -64 82 -4 0 -8 7 -8 15 0 20 -217 214 -260
232 -19 8 -48 25 -65 37 -61 45 -179 95 -240 102 -33 4 -87 18 -120 33 l-60
26 -445 5 -445 5 -79 44 c-133 74 -205 165 -232 296 -15 72 -15 84 -1 134 25
87 66 170 95 189 15 9 33 25 40 34 7 10 18 18 24 18 5 0 28 14 49 31 22 17 56
36 77 42 25 8 317 13 889 17 l853 5 27 28 28 27 0 343 0 342 -30 15 c-26 13
-149 15 -945 16 -638 1 -939 -2 -996 -10z"/>
<path d="M28426 4399 c-27 -4 -56 -15 -64 -23 -14 -14 -16 -228 -18 -1938 -1
-1058 0 -1942 3 -1965 7 -61 27 -70 169 -77 275 -14 503 -10 601 10 53 10 52
2 53 455 0 250 4 429 10 439 18 34 41 50 70 50 16 0 32 5 35 10 3 6 14 10 24
10 10 0 30 9 44 20 15 12 49 24 77 27 28 3 53 10 56 14 3 5 17 9 32 9 15 0 50
11 77 25 28 13 62 25 77 25 24 0 76 20 138 55 14 7 39 15 55 18 50 8 117 28
139 42 12 7 41 16 66 20 49 8 124 38 134 53 3 6 30 13 59 17 28 4 79 20 112
35 33 16 89 35 124 44 35 8 74 22 86 30 13 9 56 23 97 32 40 9 96 27 125 40
28 13 63 24 77 24 13 0 55 16 92 35 73 38 101 43 110 20 4 -8 7 -355 8 -771 1
-863 -10 -777 101 -789 115 -12 347 -14 490 -3 169 12 179 14 199 34 14 14 16
207 16 1969 0 1074 -3 1961 -6 1970 -16 41 -47 45 -394 45 -390 0 -393 -1
-403 -75 -4 -26 -7 -371 -7 -766 l0 -719 -27 -16 c-16 -9 -46 -29 -68 -44 -24
-16 -61 -30 -93 -34 -28 -4 -80 -20 -115 -35 -34 -16 -82 -32 -107 -36 -25 -4
-56 -16 -69 -26 -13 -11 -32 -19 -42 -19 -10 0 -20 -4 -23 -9 -3 -4 -35 -11
-70 -14 -36 -3 -76 -13 -89 -22 -13 -8 -59 -24 -103 -36 -43 -11 -81 -24 -84
-28 -11 -17 -68 -40 -130 -51 -36 -7 -79 -21 -96 -31 -17 -11 -64 -26 -105
-35 -41 -9 -83 -25 -95 -35 -12 -11 -54 -26 -97 -34 -43 -8 -87 -21 -100 -29
-12 -8 -53 -24 -92 -34 -38 -11 -91 -32 -116 -46 -29 -16 -69 -28 -109 -33
-54 -5 -65 -4 -76 12 -12 16 -14 204 -14 1079 0 584 -4 1066 -8 1073 -4 7 -27
19 -51 28 -36 12 -97 15 -340 14 -163 -1 -318 -5 -345 -10z"/>
<path d="M13394 2753 c-18 -2 -40 -13 -50 -25 -17 -18 -19 -44 -22 -307 -2
-285 5 -379 33 -409 7 -8 29 -17 50 -22 21 -5 588 -9 1259 -10 1331 -2 1277
-4 1321 54 19 26 20 39 18 354 -2 326 -2 326 -24 343 -13 9 -39 20 -58 23 -39
6 -2476 5 -2527 -1z"/>
<path d="M13530 1169 c-80 -4 -153 -10 -162 -14 -34 -14 -41 -70 -43 -379 -3
-326 2 -361 47 -370 13 -3 64 -7 114 -11 116 -7 2629 -7 2709 0 157 15 145
-15 145 369 -1 361 -4 382 -67 398 -37 10 -2533 16 -2743 7z"/>
</g>
</svg>
